<svg width="24" height="24" viewBox="0 0 24 24" fill="none" xmlns="http://www.w3.org/2000/svg">
<g clip-path="url(#clip0_103_1647)">
<path d="M2.33376 3.17526C1.97626 2.89339 1.4572 2.9587 1.17532 3.3162C0.893448 3.6737 0.95876 4.19276 1.31626 4.47464L21.6663 20.4246C22.0238 20.7065 22.5428 20.6412 22.8247 20.2837C23.1066 19.9262 23.0413 19.4071 22.6838 19.1253L19.0675 16.2928C20.4288 14.8971 21.35 13.3331 21.8141 12.2228C21.9275 11.9512 21.9275 11.6487 21.8141 11.3771C21.3019 10.1499 20.2259 8.36245 18.6172 6.87057C17.0016 5.36495 14.7775 4.09995 12 4.09995C9.65563 4.09995 7.70313 5.00401 6.18032 6.18995L2.33376 3.17526ZM8.66907 8.13901C9.54563 7.33807 10.7178 6.84995 12 6.84995C14.7328 6.84995 16.95 9.06714 16.95 11.7999C16.95 12.6559 16.7334 13.4603 16.3519 14.1615L15.025 13.1234C15.3138 12.4599 15.3894 11.7003 15.19 10.9474C14.8084 9.52089 13.5469 8.56182 12.1444 8.50339C11.945 8.49651 11.8281 8.71307 11.89 8.90557C11.9622 9.12557 12.0034 9.35932 12.0034 9.60339C12.0034 9.95401 11.9209 10.284 11.7766 10.5762L8.67251 8.14245L8.66907 8.13901ZM13.8219 16.4028C13.2581 16.6262 12.6428 16.7499 12 16.7499C9.2672 16.7499 7.05001 14.5328 7.05001 11.7999C7.05001 11.5628 7.0672 11.3324 7.09813 11.1056L3.85657 8.55151C3.07282 9.57245 2.51251 10.5899 2.18595 11.3771C2.07251 11.6487 2.07251 11.9512 2.18595 12.2228C2.69814 13.4499 3.77407 15.2374 5.38282 16.7293C6.99845 18.2349 9.22251 19.4999 12 19.4999C13.6431 19.4999 15.0903 19.0565 16.3381 18.3828L13.8219 16.4028Z" fill="#7C8A92"/>
</g>
<defs>
<clipPath id="clip0_103_1647">
<rect width="22" height="17.6" fill="white" transform="translate(1 3)"/>
</clipPath>
</defs>
</svg>
