<svg width="22" height="18" viewBox="0 0 22 18" fill="none" xmlns="http://www.w3.org/2000/svg">
<path d="M2.0625 0.75C0.923828 0.75 0 1.67383 0 2.8125C0 3.46133 0.305078 4.07148 0.825 4.4625L10.175 11.475C10.6648 11.8402 11.3352 11.8402 11.825 11.475L21.175 4.4625C21.6949 4.07148 22 3.46133 22 2.8125C22 1.67383 21.0762 0.75 19.9375 0.75H2.0625ZM0 5.5625V14.5C0 16.0168 1.2332 17.25 2.75 17.25H19.25C20.7668 17.25 22 16.0168 22 14.5V5.5625L12.65 12.575C11.6703 13.3098 10.3297 13.3098 9.35 12.575L0 5.5625Z" fill="#7C8A92"/>
</svg>
