<svg width="22" height="16" viewBox="0 0 22 16" fill="none" xmlns="http://www.w3.org/2000/svg">
<path d="M11.0005 0.100098C10.7221 0.100098 10.4471 0.148223 10.1858 0.241035L0.543654 3.72322C0.217092 3.84353 0.000529109 4.15291 0.000529109 4.5001C0.000529109 4.84729 0.217092 5.15666 0.543654 5.27697L2.53397 5.99541C1.97022 6.88229 1.65053 7.93072 1.65053 9.03416V10.0001C1.65053 10.9763 1.27928 11.9835 0.883967 12.7776C0.660529 13.2245 0.406154 13.6645 0.110529 14.0701C0.00052911 14.2179 -0.0304084 14.4104 0.0314666 14.5857C0.0933416 14.761 0.237717 14.8917 0.416467 14.9363L2.61647 15.4863C2.76084 15.5242 2.91553 15.4967 3.04272 15.4176C3.1699 15.3385 3.25928 15.2079 3.28678 15.0601C3.5824 13.5888 3.43459 12.2688 3.21459 11.3235C3.10459 10.8354 2.95678 10.337 2.75053 9.87979V9.03416C2.75053 7.99604 3.10115 7.01635 3.70959 6.2326C4.15303 5.69979 4.72709 5.2701 5.40084 5.00541L10.7977 2.88447C11.0796 2.77447 11.3993 2.91197 11.5093 3.19385C11.6193 3.47572 11.4818 3.79541 11.1999 3.90541L5.80303 6.02635C5.37678 6.19479 5.00209 6.4526 4.69615 6.76885L10.1824 8.74885C10.4437 8.84166 10.7187 8.88979 10.9971 8.88979C11.2755 8.88979 11.5505 8.84166 11.8118 8.74885L21.4574 5.27697C21.784 5.1601 22.0005 4.84729 22.0005 4.5001C22.0005 4.15291 21.784 3.84353 21.4574 3.72322L11.8152 0.241035C11.554 0.148223 11.279 0.100098 11.0005 0.100098ZM4.40053 13.0251C4.40053 14.2385 7.35678 15.5001 11.0005 15.5001C14.6443 15.5001 17.6005 14.2385 17.6005 13.0251L17.0746 8.02697L12.1865 9.79385C11.8049 9.93135 11.4027 10.0001 11.0005 10.0001C10.5983 10.0001 10.1927 9.93135 9.81459 9.79385L4.92647 8.02697L4.40053 13.0251Z" fill="#7C8A92"/>
</svg>
